<?xml version="1.0" encoding="utf-8"?>
<!-- Generator: Adobe Illustrator 24.1.1, SVG Export Plug-In . SVG Version: 6.00 Build 0)  -->
<svg version="1.1" id="Calque_1" xmlns:serif="http://www.serif.com/"
	 xmlns="http://www.w3.org/2000/svg" xmlns:xlink="http://www.w3.org/1999/xlink" x="0px" y="0px" viewBox="0 0 24 24"
	 style="enable-background:new 0 0 24 24;" xml:space="preserve">
<style type="text/css">
	.st0{fill:#265787;}
	.st1{fill:#EA7600;}
</style>
<g transform="matrix(1,0,0,1,-7.78614,0)">
	<g transform="matrix(4.16667,0,0,4.98882,-191.107,2195.04)">
		<g transform="matrix(2.66418,0,0,2.66418,-520.324,532.513)">
			<path class="st0" d="M214.348-364.035c0.004-0.06,0.039-0.113,0.093-0.151c0.052-0.037,0.123-0.06,0.199-0.06
				c0.077,0,0.147,0.023,0.199,0.06c0.053,0.038,0.089,0.091,0.093,0.151c0.004,0.062-0.026,0.119-0.078,0.162
				c-0.053,0.043-0.129,0.071-0.214,0.071c-0.085,0-0.161-0.027-0.214-0.071C214.373-363.916,214.344-363.974,214.348-364.035z"/>
		</g>
		<g transform="matrix(2.66418,0,0,2.66418,-520.324,532.513)">
			<path class="st1" d="M213.883-363.914c0.001,0.024,0.01,0.069,0.023,0.105c0.028,0.076,0.077,0.146,0.143,0.208
				c0.069,0.063,0.153,0.114,0.251,0.151c0.103,0.038,0.214,0.057,0.33,0.057c0.115,0,0.227-0.02,0.329-0.058
				c0.098-0.037,0.182-0.088,0.251-0.151c0.067-0.062,0.115-0.132,0.143-0.208c0.014-0.038,0.023-0.077,0.027-0.116
				c0.004-0.038,0.002-0.077-0.004-0.115c-0.013-0.075-0.044-0.145-0.091-0.209c-0.044-0.059-0.1-0.11-0.167-0.154l0,0l-0.675-0.433
				c-0.001,0-0.001-0.001-0.002-0.001c-0.044-0.028-0.119-0.028-0.168,0c-0.049,0.029-0.055,0.076-0.011,0.106l0,0l0.282,0.191
				l-0.859,0.001h-0.001c-0.071,0-0.139,0.039-0.153,0.088c-0.014,0.05,0.034,0.092,0.108,0.092l0,0l0.435-0.001l-0.777,0.498
				c-0.001,0.001-0.002,0.001-0.003,0.002c-0.073,0.047-0.097,0.125-0.051,0.174c0.047,0.05,0.146,0.05,0.22,0l0.424-0.29
				C213.889-363.976,213.882-363.937,213.883-363.914z M214.972-363.783c-0.087,0.074-0.21,0.116-0.342,0.117
				c-0.132,0-0.255-0.042-0.342-0.116c-0.043-0.036-0.074-0.078-0.093-0.122c-0.019-0.044-0.026-0.09-0.021-0.136
				c0.005-0.046,0.021-0.089,0.047-0.128c0.025-0.039,0.061-0.074,0.104-0.103c0.085-0.058,0.193-0.089,0.306-0.089
				c0.113,0,0.221,0.031,0.306,0.088c0.043,0.029,0.078,0.064,0.104,0.103c0.026,0.039,0.042,0.083,0.047,0.128
				c0.005,0.047-0.003,0.093-0.022,0.136C215.046-363.861,215.015-363.819,214.972-363.783z"/>
		</g>
	</g>
</g>
</svg>
